<svg width="19" height="16" viewBox="0 0 19 16" fill="none" xmlns="http://www.w3.org/2000/svg">
<path fill-rule="evenodd" clip-rule="evenodd" d="M8.90958 5.31799L8.86995 4.69969C8.75115 3.09725 9.79388 1.63358 11.4438 1.06584C12.051 0.863931 13.0805 0.838693 13.7537 1.01536C14.0177 1.09107 14.5193 1.34338 14.8756 1.57053L15.5224 1.98692L16.2352 1.77243C16.6312 1.65882 17.1592 1.46957 17.3967 1.34338C17.6211 1.22985 17.8191 1.16671 17.8191 1.20461C17.8191 1.4191 17.3307 2.15093 16.9216 2.55467C16.3672 3.12249 16.5256 3.17296 17.6475 2.79439C18.3207 2.5799 18.3338 2.57991 18.2019 2.81963C18.1226 2.94582 17.7135 3.38745 17.2779 3.79119C16.5387 4.4852 16.4992 4.56092 16.4992 5.14132C16.4992 6.03716 16.0504 7.90457 15.6016 8.9266C14.77 10.8445 12.9881 12.8254 11.2062 13.8222C8.69839 15.2228 5.35891 15.5761 2.54748 14.756C1.61034 14.4783 0 13.7717 0 13.6456C0 13.6077 0.488346 13.5573 1.08236 13.5447C2.32308 13.5194 3.5638 13.1913 4.61975 12.6109L5.33257 12.2072L4.51415 11.9422C3.35261 11.5637 2.30987 10.6931 2.04593 9.87292C1.96667 9.60796 1.99309 9.5953 2.73225 9.5953L3.49783 9.58272L2.85105 9.29252C2.08547 8.9266 1.38594 8.3083 1.04274 7.67742C0.79192 7.22321 0.475215 6.07498 0.5676 5.98669C0.59394 5.94887 0.871175 6.02451 1.18796 6.12546C2.09868 6.4409 2.21749 6.36519 1.68951 5.83526C0.699535 4.87636 0.39596 3.45051 0.871175 2.10045L1.09557 1.49481L1.96667 2.31494C3.74865 3.96786 5.84733 4.95207 8.24959 5.24227L8.90958 5.31799Z" fill="white"/>
</svg>
