<svg width="16" height="17" viewBox="0 0 16 17" fill="none" xmlns="http://www.w3.org/2000/svg">
<path d="M8.00179 4.59554C5.73162 4.59554 3.9005 6.33333 3.9005 8.48779C3.9005 10.6423 5.73162 12.38 8.00179 12.38C10.2719 12.38 12.1031 10.6423 12.1031 8.48779C12.1031 6.33333 10.2719 4.59554 8.00179 4.59554ZM8.00179 11.0183C6.53475 11.0183 5.33542 9.88345 5.33542 8.48779C5.33542 7.09214 6.53118 5.95732 8.00179 5.95732C9.47239 5.95732 10.6682 7.09214 10.6682 8.48779C10.6682 9.88345 9.46882 11.0183 8.00179 11.0183ZM13.2274 4.43632C13.2274 4.94106 12.7991 5.34418 12.2708 5.34418C11.739 5.34418 11.3142 4.93768 11.3142 4.43632C11.3142 3.93497 11.7426 3.52847 12.2708 3.52847C12.7991 3.52847 13.2274 3.93497 13.2274 4.43632ZM15.9438 5.35773C15.8831 4.14161 15.5904 3.06438 14.6516 2.17685C13.7165 1.28932 12.5814 1.01155 11.2999 0.95057C9.97925 0.879432 6.02075 0.879432 4.70006 0.95057C3.4222 1.00816 2.28712 1.28593 1.34835 2.17346C0.409593 3.06099 0.120468 4.13822 0.0562186 5.35434C-0.0187395 6.60772 -0.0187395 10.3645 0.0562186 11.6179C0.116899 12.834 0.409593 13.9112 1.34835 14.7987C2.28712 15.6863 3.41863 15.964 4.70006 16.025C6.02075 16.0962 9.97925 16.0962 11.2999 16.025C12.5814 15.9674 13.7165 15.6897 14.6516 14.7987C15.5868 13.9112 15.8795 12.834 15.9438 11.6179C16.0187 10.3645 16.0187 6.61111 15.9438 5.35773ZM14.2376 12.9627C13.9592 13.6267 13.4202 14.1382 12.717 14.4058C11.664 14.8021 9.16542 14.7107 8.00179 14.7107C6.83815 14.7107 4.33597 14.7987 3.28656 14.4058C2.58695 14.1416 2.04796 13.63 1.76598 12.9627C1.34835 11.9634 1.44473 9.59212 1.44473 8.48779C1.44473 7.38346 1.35192 5.00881 1.76598 4.01288C2.04439 3.34893 2.58338 2.83742 3.28656 2.5698C4.33954 2.17346 6.83815 2.26493 8.00179 2.26493C9.16542 2.26493 11.6676 2.17685 12.717 2.5698C13.4166 2.83403 13.9556 3.34554 14.2376 4.01288C14.6552 5.0122 14.5588 7.38346 14.5588 8.48779C14.5588 9.59212 14.6552 11.9668 14.2376 12.9627Z" fill="white"/>
</svg>
